<mxfile host="app.diagrams.net" modified="2020-08-11T03:17:51.891Z" agent="5.0 (Macintosh)" etag="sDC22LZ7Etmzxj_K65OH" version="13.6.2" type="github">
  <diagram id="N1Dy4Xbomv0nKklenES5" name="Page-1">
    <mxGraphModel dx="786" dy="551" grid="1" gridSize="10" guides="1" tooltips="1" connect="1" arrows="1" fold="1" page="1" pageScale="1" pageWidth="850" pageHeight="1100" math="0" shadow="0">
      <root>
        <mxCell id="0" />
        <mxCell id="1" parent="0" />
        <mxCell id="f19l1gq4jlYd-9iDIfYs-4" value="Bootstrap Overview" style="text;html=1;align=center;verticalAlign=middle;resizable=0;points=[];autosize=1;fontSize=20;fontColor=#FF8000;" parent="1" vertex="1">
          <mxGeometry x="270" y="45" width="190" height="30" as="geometry" />
        </mxCell>
        <mxCell id="f19l1gq4jlYd-9iDIfYs-5" value="" style="group" parent="1" vertex="1" connectable="0">
          <mxGeometry x="190" y="110" width="390" height="260" as="geometry" />
        </mxCell>
        <mxCell id="f19l1gq4jlYd-9iDIfYs-1" value="&lt;h1&gt;Custom css&lt;br&gt;&lt;/h1&gt;&lt;p&gt;bootstrap defines styles for most html elements with specific classes, that kind of classes always use content keyword for its name like &lt;b&gt;alert, badge, btn, card which set several css properties&lt;/b&gt;, but you can change one particular css property by Utilities provided by bootstrap&lt;/p&gt;&lt;p&gt;Utilities focus on border, bg, text, shadow, flex, block, padding, margin, float, height, width, position, align, display etc but e&lt;b&gt;ach class only affect one css property with !important&lt;/b&gt;.&lt;br&gt;&lt;/p&gt;" style="text;html=1;strokeColor=none;fillColor=none;spacing=5;spacingTop=-20;whiteSpace=wrap;overflow=hidden;rounded=0;" parent="f19l1gq4jlYd-9iDIfYs-5" vertex="1">
          <mxGeometry y="80" width="390" height="180" as="geometry" />
        </mxCell>
        <mxCell id="f19l1gq4jlYd-9iDIfYs-2" value="Utility CSSClass(!important)" style="ellipse;whiteSpace=wrap;html=1;fillColor=#f8cecc;strokeColor=#b85450;" parent="f19l1gq4jlYd-9iDIfYs-5" vertex="1">
          <mxGeometry x="220" width="120" height="80" as="geometry" />
        </mxCell>
        <mxCell id="f19l1gq4jlYd-9iDIfYs-3" value="&lt;div&gt;Context CSS Class&lt;/div&gt;&lt;div&gt;(alert, badge, btn)&lt;br&gt;&lt;/div&gt;" style="rounded=1;whiteSpace=wrap;html=1;fillColor=#fff2cc;strokeColor=#d6b656;" parent="f19l1gq4jlYd-9iDIfYs-5" vertex="1">
          <mxGeometry x="10" width="120" height="60" as="geometry" />
        </mxCell>
      </root>
    </mxGraphModel>
  </diagram>
</mxfile>
